<mxfile host="Electron" agent="Mozilla/5.0 (Windows NT 10.0; Win64; x64) AppleWebKit/537.36 (KHTML, like Gecko) draw.io/27.0.5 Chrome/134.0.6998.205 Electron/35.3.0 Safari/537.36" version="27.0.5">
  <diagram name="Page-1" id="tVyCz2zJRW9Rt1t9Aigx">
    <mxGraphModel dx="1244" dy="569" grid="0" gridSize="1" guides="1" tooltips="1" connect="1" arrows="1" fold="1" page="1" pageScale="1" pageWidth="3300" pageHeight="2339" math="0" shadow="0">
      <root>
        <mxCell id="0" />
        <mxCell id="1" parent="0" />
        <mxCell id="V4PutQKWJatf0HaBM0gG-3" value="" style="ellipse;html=1;shape=endState;fillColor=#000000;strokeColor=#ff0000;" parent="1" vertex="1">
          <mxGeometry x="2428" y="555" width="30" height="30" as="geometry" />
        </mxCell>
        <mxCell id="V4PutQKWJatf0HaBM0gG-11" value="" style="ellipse;html=1;shape=startState;fillColor=#000000;strokeColor=#ff0000;rotation=-90;" parent="1" vertex="1">
          <mxGeometry x="1145" y="555" width="30" height="30" as="geometry" />
        </mxCell>
        <mxCell id="V4PutQKWJatf0HaBM0gG-12" value="" style="edgeStyle=orthogonalEdgeStyle;html=1;verticalAlign=bottom;endArrow=open;endSize=8;strokeColor=#ff0000;rounded=0;entryX=0;entryY=0.5;entryDx=0;entryDy=0;" parent="1" source="V4PutQKWJatf0HaBM0gG-11" target="V4PutQKWJatf0HaBM0gG-13" edge="1">
          <mxGeometry relative="1" as="geometry">
            <mxPoint x="1259" y="567.5" as="targetPoint" />
          </mxGeometry>
        </mxCell>
        <mxCell id="V4PutQKWJatf0HaBM0gG-32" style="edgeStyle=orthogonalEdgeStyle;rounded=0;orthogonalLoop=1;jettySize=auto;html=1;entryX=0;entryY=0.5;entryDx=0;entryDy=0;" parent="1" source="V4PutQKWJatf0HaBM0gG-13" target="V4PutQKWJatf0HaBM0gG-15" edge="1">
          <mxGeometry relative="1" as="geometry" />
        </mxCell>
        <mxCell id="N3nGO2o4_-wFrIXZPiAD-23" style="edgeStyle=orthogonalEdgeStyle;rounded=0;orthogonalLoop=1;jettySize=auto;html=1;exitX=0.5;exitY=1;exitDx=0;exitDy=0;entryX=0;entryY=0.75;entryDx=0;entryDy=0;" edge="1" parent="1" source="V4PutQKWJatf0HaBM0gG-13" target="V4PutQKWJatf0HaBM0gG-27">
          <mxGeometry relative="1" as="geometry" />
        </mxCell>
        <mxCell id="V4PutQKWJatf0HaBM0gG-13" value="Pending" style="rounded=1;whiteSpace=wrap;html=1;fillColor=#FFE6CC;" parent="1" vertex="1">
          <mxGeometry x="1222" y="522" width="119" height="95" as="geometry" />
        </mxCell>
        <mxCell id="V4PutQKWJatf0HaBM0gG-34" style="edgeStyle=orthogonalEdgeStyle;rounded=0;orthogonalLoop=1;jettySize=auto;html=1;entryX=0;entryY=0.5;entryDx=0;entryDy=0;" parent="1" source="V4PutQKWJatf0HaBM0gG-15" target="V4PutQKWJatf0HaBM0gG-16" edge="1">
          <mxGeometry relative="1" as="geometry" />
        </mxCell>
        <mxCell id="V4PutQKWJatf0HaBM0gG-15" value="Approved" style="rounded=1;whiteSpace=wrap;html=1;fillColor=#FFE6CC;" parent="1" vertex="1">
          <mxGeometry x="1497" y="522" width="119" height="95" as="geometry" />
        </mxCell>
        <mxCell id="N3nGO2o4_-wFrIXZPiAD-13" style="edgeStyle=orthogonalEdgeStyle;rounded=0;orthogonalLoop=1;jettySize=auto;html=1;exitX=0.337;exitY=0.993;exitDx=0;exitDy=0;exitPerimeter=0;entryX=0.753;entryY=0.015;entryDx=0;entryDy=0;entryPerimeter=0;" edge="1" parent="1" target="V4PutQKWJatf0HaBM0gG-27">
          <mxGeometry relative="1" as="geometry">
            <mxPoint x="1753.103" y="600.0049999999999" as="sourcePoint" />
            <mxPoint x="1578.9930000000002" y="662.095" as="targetPoint" />
            <Array as="points">
              <mxPoint x="1753" y="632" />
              <mxPoint x="1591" y="632" />
              <mxPoint x="1591" y="662" />
              <mxPoint x="1592" y="662" />
            </Array>
          </mxGeometry>
        </mxCell>
        <mxCell id="N3nGO2o4_-wFrIXZPiAD-19" style="edgeStyle=orthogonalEdgeStyle;rounded=0;orthogonalLoop=1;jettySize=auto;html=1;exitX=0.5;exitY=0;exitDx=0;exitDy=0;entryX=0.5;entryY=0;entryDx=0;entryDy=0;" edge="1" parent="1" source="V4PutQKWJatf0HaBM0gG-16" target="V4PutQKWJatf0HaBM0gG-44">
          <mxGeometry relative="1" as="geometry" />
        </mxCell>
        <mxCell id="V4PutQKWJatf0HaBM0gG-16" value="Prepared" style="rounded=1;whiteSpace=wrap;html=1;fillColor=#FFE6CC;" parent="1" vertex="1">
          <mxGeometry x="1708" y="522" width="119" height="95" as="geometry" />
        </mxCell>
        <mxCell id="V4PutQKWJatf0HaBM0gG-23" value="" style="shape=umlDestroy;whiteSpace=wrap;html=1;strokeWidth=3;targetShapes=umlLifeline;" parent="1" vertex="1">
          <mxGeometry x="1669" y="701.5" width="30" height="30" as="geometry" />
        </mxCell>
        <mxCell id="V4PutQKWJatf0HaBM0gG-25" value="&lt;b&gt;adminApprove(orderId)&lt;/b&gt;" style="text;html=1;align=center;verticalAlign=middle;resizable=0;points=[];autosize=1;strokeColor=none;fillColor=none;" parent="1" vertex="1">
          <mxGeometry x="1341" y="542" width="152" height="27" as="geometry" />
        </mxCell>
        <mxCell id="V4PutQKWJatf0HaBM0gG-27" value="Cancelled" style="rounded=1;whiteSpace=wrap;html=1;fillColor=#FFE6CC;" parent="1" vertex="1">
          <mxGeometry x="1502" y="669" width="119" height="95" as="geometry" />
        </mxCell>
        <mxCell id="V4PutQKWJatf0HaBM0gG-29" style="edgeStyle=orthogonalEdgeStyle;rounded=0;orthogonalLoop=1;jettySize=auto;html=1;entryX=0.367;entryY=0.467;entryDx=0;entryDy=0;entryPerimeter=0;" parent="1" source="V4PutQKWJatf0HaBM0gG-27" target="V4PutQKWJatf0HaBM0gG-23" edge="1">
          <mxGeometry relative="1" as="geometry" />
        </mxCell>
        <mxCell id="V4PutQKWJatf0HaBM0gG-35" value="&lt;b&gt;[Finish]&lt;/b&gt;" style="text;html=1;align=center;verticalAlign=middle;resizable=0;points=[];autosize=1;strokeColor=none;fillColor=none;" parent="1" vertex="1">
          <mxGeometry x="1629" y="544" width="61" height="26" as="geometry" />
        </mxCell>
        <mxCell id="N3nGO2o4_-wFrIXZPiAD-5" style="edgeStyle=orthogonalEdgeStyle;rounded=0;orthogonalLoop=1;jettySize=auto;html=1;exitX=1;exitY=0.5;exitDx=0;exitDy=0;entryX=0;entryY=0.5;entryDx=0;entryDy=0;" edge="1" parent="1" source="V4PutQKWJatf0HaBM0gG-43" target="V4PutQKWJatf0HaBM0gG-44">
          <mxGeometry relative="1" as="geometry" />
        </mxCell>
        <mxCell id="V4PutQKWJatf0HaBM0gG-43" value="On the way" style="rounded=1;whiteSpace=wrap;html=1;fillColor=#FFE6CC;" parent="1" vertex="1">
          <mxGeometry x="2093" y="522.5" width="119" height="95" as="geometry" />
        </mxCell>
        <mxCell id="N3nGO2o4_-wFrIXZPiAD-6" style="edgeStyle=orthogonalEdgeStyle;rounded=0;orthogonalLoop=1;jettySize=auto;html=1;exitX=1;exitY=0.5;exitDx=0;exitDy=0;" edge="1" parent="1" source="V4PutQKWJatf0HaBM0gG-44" target="V4PutQKWJatf0HaBM0gG-3">
          <mxGeometry relative="1" as="geometry" />
        </mxCell>
        <mxCell id="N3nGO2o4_-wFrIXZPiAD-21" style="edgeStyle=orthogonalEdgeStyle;rounded=0;orthogonalLoop=1;jettySize=auto;html=1;" edge="1" parent="1" source="V4PutQKWJatf0HaBM0gG-44" target="V4PutQKWJatf0HaBM0gG-3">
          <mxGeometry relative="1" as="geometry" />
        </mxCell>
        <mxCell id="V4PutQKWJatf0HaBM0gG-44" value="Archived" style="rounded=1;whiteSpace=wrap;html=1;fillColor=#FFE6CC;" parent="1" vertex="1">
          <mxGeometry x="2273" y="522.5" width="119" height="95" as="geometry" />
        </mxCell>
        <mxCell id="V4PutQKWJatf0HaBM0gG-46" style="edgeStyle=orthogonalEdgeStyle;rounded=0;orthogonalLoop=1;jettySize=auto;html=1;entryX=0;entryY=0.5;entryDx=0;entryDy=0;" parent="1" source="V4PutQKWJatf0HaBM0gG-16" target="V4PutQKWJatf0HaBM0gG-43" edge="1">
          <mxGeometry relative="1" as="geometry">
            <mxPoint x="1996" y="569.0699999999997" as="targetPoint" />
          </mxGeometry>
        </mxCell>
        <mxCell id="V4PutQKWJatf0HaBM0gG-61" value="&lt;b&gt;deliveryApprove(orderId)/[delevieriedOrder]&lt;/b&gt;" style="text;html=1;align=center;verticalAlign=middle;resizable=0;points=[];autosize=1;strokeColor=none;fillColor=none;" parent="1" vertex="1">
          <mxGeometry x="1824" y="544" width="268" height="26" as="geometry" />
        </mxCell>
        <mxCell id="V4PutQKWJatf0HaBM0gG-62" value="sm order" style="shape=umlFrame;whiteSpace=wrap;html=1;pointerEvents=0;" parent="1" vertex="1">
          <mxGeometry x="1136" y="441" width="1337" height="351" as="geometry" />
        </mxCell>
        <mxCell id="N3nGO2o4_-wFrIXZPiAD-15" style="edgeStyle=orthogonalEdgeStyle;rounded=0;orthogonalLoop=1;jettySize=auto;html=1;entryX=0.464;entryY=0.029;entryDx=0;entryDy=0;entryPerimeter=0;" edge="1" parent="1" target="V4PutQKWJatf0HaBM0gG-27">
          <mxGeometry relative="1" as="geometry">
            <mxPoint x="1502" y="614" as="sourcePoint" />
            <Array as="points">
              <mxPoint x="1502" y="615" />
              <mxPoint x="1502" y="631" />
              <mxPoint x="1559" y="631" />
            </Array>
          </mxGeometry>
        </mxCell>
        <mxCell id="N3nGO2o4_-wFrIXZPiAD-16" value="&lt;b&gt;customerCancel(orderId)&lt;/b&gt;" style="text;html=1;align=center;verticalAlign=middle;resizable=0;points=[];autosize=1;strokeColor=none;fillColor=none;" vertex="1" parent="1">
          <mxGeometry x="1395" y="630" width="161" height="26" as="geometry" />
        </mxCell>
        <mxCell id="N3nGO2o4_-wFrIXZPiAD-17" value="&lt;b style=&quot;forced-color-adjust: none; color: rgb(0, 0, 0); font-family: Helvetica; font-size: 12px; font-style: normal; font-variant-ligatures: normal; font-variant-caps: normal; letter-spacing: normal; orphans: 2; text-align: center; text-indent: 0px; text-transform: none; widows: 2; word-spacing: 0px; -webkit-text-stroke-width: 0px; white-space: nowrap; background-color: rgb(236, 236, 236); text-decoration-thickness: initial; text-decoration-style: initial; text-decoration-color: initial;&quot;&gt;customerCancel(orderId)&lt;/b&gt;" style="text;whiteSpace=wrap;html=1;" vertex="1" parent="1">
          <mxGeometry x="1617" y="627" width="164" height="25" as="geometry" />
        </mxCell>
        <mxCell id="N3nGO2o4_-wFrIXZPiAD-20" value="&lt;b style=&quot;forced-color-adjust: none; color: rgb(0, 0, 0); font-family: Helvetica; font-size: 12px; font-style: normal; font-variant-ligatures: normal; font-variant-caps: normal; letter-spacing: normal; orphans: 2; text-align: center; text-indent: 0px; text-transform: none; widows: 2; word-spacing: 0px; -webkit-text-stroke-width: 0px; white-space: nowrap; background-color: rgb(236, 236, 236); text-decoration-thickness: initial; text-decoration-style: initial; text-decoration-color: initial;&quot;&gt;adminArchieve(orderId)/[RecievedOrder]&lt;/b&gt;" style="text;whiteSpace=wrap;html=1;" vertex="1" parent="1">
          <mxGeometry x="1954.9954945203995" y="475.9977913411458" width="162" height="27" as="geometry" />
        </mxCell>
        <mxCell id="N3nGO2o4_-wFrIXZPiAD-24" value="&lt;b style=&quot;forced-color-adjust: none; color: rgb(0, 0, 0); font-family: Helvetica; font-size: 12px; font-style: normal; font-variant-ligatures: normal; font-variant-caps: normal; letter-spacing: normal; orphans: 2; text-align: center; text-indent: 0px; text-transform: none; widows: 2; word-spacing: 0px; -webkit-text-stroke-width: 0px; white-space: nowrap; background-color: rgb(236, 236, 236); text-decoration-thickness: initial; text-decoration-style: initial; text-decoration-color: initial;&quot;&gt;customerCancel(orderId)&lt;/b&gt;" style="text;whiteSpace=wrap;html=1;" vertex="1" parent="1">
          <mxGeometry x="1331.004257600204" y="706.003934273098" width="162" height="27" as="geometry" />
        </mxCell>
      </root>
    </mxGraphModel>
  </diagram>
</mxfile>
